<svg width="489" height="205" viewBox="0 0 489 205" fill="none" xmlns="http://www.w3.org/2000/svg">
<g clip-path="url(#clip0_1_10)">
<path d="M217.877 127.911H155.298C151.854 127.911 148.647 126.056 146.928 123.07L115.639 68.796C113.919 65.81 113.919 62.1007 115.639 59.1146L146.928 4.84068C148.647 1.85462 151.86 0 155.298 0H217.872C221.316 0 224.522 1.85462 226.241 4.84068L257.531 59.1146C259.25 62.1007 259.25 65.81 257.531 68.796L226.241 123.07C224.528 126.056 221.322 127.911 217.877 127.911ZM155.298 3.39431C153.062 3.39431 150.982 4.59573 149.867 6.53784L118.578 60.8118C117.462 62.7481 117.462 65.1568 118.578 67.0989L149.867 121.373C150.982 123.309 153.068 124.516 155.298 124.516H217.872C220.108 124.516 222.187 123.315 223.302 121.373L254.592 67.0989C255.707 65.1626 255.707 62.7539 254.592 60.8118L223.302 6.53784C222.187 4.60156 220.102 3.39431 217.872 3.39431H155.298Z" fill="#0D3A48"/>
<path d="M211.61 120.276C211.314 120.276 211.012 120.259 210.716 120.23L157.592 118.486C154.282 118.148 151.372 116.054 149.995 113.021L124.938 66.0723C123.573 63.0279 123.933 59.4586 125.867 56.7467L153.939 11.5417C155.891 8.83559 159.155 7.36005 162.466 7.68082L215.589 9.42463C218.9 9.7629 221.81 11.8566 223.186 14.8894L248.238 61.8382C249.603 64.8825 249.242 68.4518 247.308 71.1638L219.237 116.369C217.471 118.83 214.607 120.276 211.61 120.276ZM157.865 115.272L210.983 117.016C213.155 117.238 215.304 116.287 216.6 114.526L244.666 69.3266C245.949 67.5537 246.193 65.215 245.316 63.2145L220.265 16.2716C219.37 14.2712 217.471 12.8889 215.304 12.644L162.187 10.9002C160.014 10.6727 157.865 11.6292 156.57 13.3905L128.504 58.5896C127.22 60.3626 126.977 62.7013 127.848 64.7017L152.899 111.645C153.8 113.645 155.699 115.027 157.865 115.272Z" fill="#0D3A48"/>
<path d="M205.349 112.718C204.75 112.718 204.146 112.66 203.554 112.537L159.898 109.044C156.715 108.373 154.102 106.046 153.062 102.961L134.254 63.343C133.244 60.2461 133.952 56.8168 136.096 54.3731L160.95 18.2546C163.122 15.8285 166.45 14.732 169.627 15.3677L213.283 18.8612C216.466 19.5319 219.08 21.8589 220.119 24.9441L238.927 64.5619C239.937 67.6646 239.229 71.0881 237.086 73.5318L212.232 109.65C210.466 111.622 207.945 112.718 205.349 112.718ZM160.438 106.034L204.082 109.528C206.208 109.971 208.427 109.265 209.897 107.673L234.745 71.5605C236.197 69.945 236.691 67.6646 236.052 65.5884L217.25 25.9822C216.576 23.9177 214.851 22.343 212.743 21.8647L169.099 18.3713C166.973 17.9222 164.754 18.6337 163.285 20.2259L138.436 56.3386C136.984 57.9541 136.491 60.2345 137.129 62.3107L155.931 101.917C156.599 103.981 158.324 105.556 160.438 106.034Z" fill="#0D3A48"/>
<path d="M199.093 105.253C198.187 105.253 197.269 105.119 196.381 104.839L162.216 99.5898C159.155 98.5925 156.831 96.0321 156.129 92.8944L143.588 60.6368C142.92 57.4817 143.978 54.1865 146.336 52.0053L167.96 24.9966C170.353 22.8445 173.728 22.1097 176.795 23.0661L210.96 28.3151C214.021 29.3124 216.344 31.8727 217.047 35.0104L229.587 67.268C230.255 70.4232 229.198 73.7183 226.84 75.8996L205.215 102.908C203.519 104.442 201.323 105.253 199.093 105.253ZM163.006 96.8137L197.159 102.063C199.244 102.745 201.55 102.278 203.205 100.838L224.818 73.8408C226.45 72.3711 227.2 70.1374 226.787 67.9853L214.253 35.7394C213.8 33.5873 212.237 31.8202 210.17 31.1028L176.016 25.8539C173.931 25.1716 171.625 25.6381 169.97 27.0787L148.357 54.0757C146.725 55.5454 145.976 57.7791 146.388 59.9312L158.922 92.1771C159.381 94.3292 160.938 96.0963 163.006 96.8137Z" fill="#0D3A48"/>
<path d="M192.837 97.8752C191.6 97.8752 190.363 97.6244 189.196 97.117L164.568 90.1242C161.623 88.8062 159.579 86.0009 159.219 82.7991L152.951 57.9424C152.62 54.7289 154.02 51.5562 156.611 49.6375L174.971 31.7678C177.585 29.8782 181.029 29.5049 183.98 30.788L208.613 37.7807C211.558 39.1046 213.602 41.904 213.962 45.1059L220.23 69.9683C220.561 73.1819 219.155 76.3545 216.57 78.2733L198.21 96.143C196.624 97.2861 194.737 97.8752 192.837 97.8752ZM165.59 87.6106L190.212 94.6033C192.274 95.5306 194.696 95.2915 196.543 93.9968L214.898 76.1388C216.733 74.8149 217.738 72.5986 217.54 70.3474L211.273 45.4908C211.041 43.2396 209.635 41.2567 207.585 40.3002L182.963 33.3133C180.895 32.386 178.479 32.6193 176.632 33.9198L158.278 51.7837C156.442 53.1076 155.437 55.3238 155.635 57.575L161.902 82.4258C162.134 84.677 163.546 86.6541 165.59 87.6106Z" fill="#0D3A48"/>
<path d="M186.588 90.5849C184.99 90.5849 183.393 90.1708 181.964 89.3484L166.938 80.6585C164.086 79.008 162.315 75.9403 162.315 72.6452V55.2654C162.315 51.9702 164.086 48.8967 166.938 47.252L181.964 38.5621C184.816 36.9116 188.359 36.9116 191.205 38.5621L206.232 47.252C209.083 48.9025 210.855 51.9702 210.855 55.2654V72.6452C210.855 75.9403 209.083 79.0139 206.232 80.6585L191.205 89.3484C189.782 90.1708 188.185 90.5849 186.588 90.5849ZM186.588 39.8743C185.426 39.8743 184.27 40.1718 183.236 40.7725L168.21 49.4624C166.142 50.658 164.859 52.88 164.859 55.2712V72.651C164.859 75.0422 166.142 77.2642 168.21 78.4598L183.236 87.1497C185.304 88.3453 187.871 88.3453 189.933 87.1497L204.96 78.4598C207.027 77.2642 208.311 75.0363 208.311 72.651V55.2712C208.311 52.88 207.027 50.658 204.96 49.4624L189.933 40.7725C188.905 40.1718 187.744 39.8743 186.588 39.8743Z" fill="#0D3A48"/>
<path d="M0 124.703V2.11719H13.638L73.2667 88.4505V2.11719H90.7498V124.703H76.7633L17.6574 39.0697V124.703H0Z" fill="#0D3A48"/>
<path d="M358.91 2.11719H377.793L328.66 125.053H315.719L266.586 2.11719H285.824L322.19 93.8802L358.91 2.11719Z" fill="#0D3A48"/>
<path d="M458.402 93.711H408.74L396.85 124.709H377.793L426.926 0.54248H439.867L489 124.703H470.117L458.402 93.711ZM415.211 77.0719H451.931L433.571 28.7351L415.211 77.0719Z" fill="#0D3A48"/>
<path d="M106.322 204.656H99.5959V194.549H91.8243V204.656H85.0983V179.863H91.8243V189.055H99.5959V179.863H106.322V204.656Z" fill="#0D3A48"/>
<path d="M138.309 192.228C138.309 196.403 137.286 199.57 135.248 201.746C133.203 203.915 130.212 205 126.268 205C122.382 205 119.408 203.909 117.335 201.728C115.267 199.547 114.227 196.368 114.227 192.198C114.227 188.069 115.255 184.92 117.317 182.739C119.379 180.563 122.37 179.473 126.303 179.473C130.241 179.473 133.226 180.552 135.259 182.715C137.292 184.867 138.309 188.04 138.309 192.228ZM121.273 192.228C121.273 197.022 122.934 199.419 126.268 199.419C127.964 199.419 129.219 198.835 130.038 197.675C130.857 196.514 131.263 194.695 131.263 192.228C131.263 189.755 130.851 187.923 130.02 186.74C129.19 185.561 127.952 184.967 126.303 184.967C122.951 184.967 121.273 187.387 121.273 192.228Z" fill="#0D3A48"/>
<path d="M157.168 204.656H150.477V185.34H144.431V179.863H163.197V185.34H157.168V204.656Z" fill="#0D3A48"/>
<path d="M184.909 204.656H170.208V179.863H184.909V185.241H176.899V189.142H184.317V194.519H176.899V199.203H184.909V204.656Z" fill="#0D3A48"/>
<path d="M192.716 204.656V179.863H199.407V199.249H208.938V204.662H192.716V204.656Z" fill="#0D3A48"/>
<path d="M245.496 204.656L243.817 202.924C242.801 203.571 241.97 204.014 241.32 204.254C240.669 204.498 239.943 204.679 239.136 204.808C238.329 204.93 237.405 204.994 236.371 204.994C234.588 204.994 233.008 204.691 231.637 204.079C230.267 203.466 229.215 202.615 228.489 201.518C227.757 200.422 227.397 199.174 227.397 197.768C227.397 194.805 228.931 192.537 232.003 190.968C231.3 190.175 230.76 189.335 230.371 188.448C229.982 187.562 229.784 186.559 229.784 185.439C229.784 183.631 230.481 182.196 231.875 181.135C233.269 180.073 235.186 179.537 237.626 179.537C240.007 179.537 241.866 180.068 243.19 181.123C244.514 182.179 245.182 183.619 245.182 185.439C245.182 186.693 244.822 187.854 244.108 188.927C243.388 189.994 242.261 190.997 240.716 191.936L244.085 195.144C244.933 193.843 245.519 192.373 245.845 190.735H252.722C252.385 192.298 251.85 193.861 251.124 195.424C250.393 196.992 249.574 198.334 248.656 199.454L254.075 204.662H245.496V204.656ZM234.21 197.296C234.21 198.007 234.466 198.59 234.971 199.045C235.482 199.5 236.15 199.722 236.987 199.722C237.632 199.722 238.195 199.634 238.683 199.465C239.171 199.296 239.542 199.104 239.804 198.888L235.604 194.613C234.675 195.307 234.21 196.199 234.21 197.296ZM239.211 185.439C239.211 184.885 239.049 184.488 238.729 184.243C238.41 183.998 238.003 183.876 237.521 183.876C237.045 183.876 236.633 184.016 236.278 184.302C235.924 184.582 235.744 185.037 235.744 185.661C235.744 186.506 236.243 187.387 237.237 188.291C237.881 187.929 238.369 187.498 238.712 186.996C239.043 186.489 239.211 185.976 239.211 185.439Z" fill="#0D3A48"/>
<path d="M288.687 197.126C288.687 198.666 288.298 200.031 287.52 201.221C286.741 202.416 285.615 203.344 284.145 204.003C282.675 204.667 280.956 204.994 278.981 204.994C277.332 204.994 275.949 204.877 274.834 204.644C273.713 204.411 272.552 204.008 271.343 203.431V197.459C272.621 198.112 273.946 198.625 275.328 198.993C276.704 199.36 277.971 199.541 279.121 199.541C280.114 199.541 280.84 199.366 281.305 199.022C281.769 198.678 282.002 198.235 282.002 197.692C282.002 197.354 281.909 197.056 281.723 196.8C281.537 196.543 281.235 196.287 280.823 196.03C280.41 195.773 279.312 195.237 277.529 194.438C275.915 193.703 274.706 192.991 273.899 192.303C273.092 191.615 272.493 190.822 272.104 189.93C271.715 189.037 271.518 187.982 271.518 186.757C271.518 184.471 272.348 182.692 274.009 181.415C275.671 180.137 277.947 179.496 280.852 179.496C283.413 179.496 286.027 180.091 288.693 181.275L286.648 186.448C284.331 185.386 282.333 184.856 280.654 184.856C279.783 184.856 279.15 185.007 278.755 185.311C278.36 185.614 278.162 185.993 278.162 186.448C278.162 186.938 278.412 187.369 278.917 187.754C279.417 188.139 280.782 188.839 283.007 189.86C285.144 190.822 286.619 191.854 287.45 192.956C288.275 194.065 288.687 195.453 288.687 197.126Z" fill="#0D3A48"/>
<path d="M317.038 179.863V194.788C317.038 198.03 316.12 200.544 314.285 202.329C312.449 204.108 309.806 205 306.35 205C302.976 205 300.379 204.137 298.573 202.405C296.761 200.678 295.855 198.188 295.855 194.939V179.863H302.581V194.414C302.581 196.17 302.906 197.441 303.562 198.229C304.213 199.022 305.183 199.413 306.455 199.413C307.82 199.413 308.813 199.022 309.423 198.235C310.039 197.447 310.346 196.164 310.346 194.374V179.863H317.038Z" fill="#0D3A48"/>
<path d="M325.704 204.656V179.863H332.43V204.662H325.704V204.656Z" fill="#0D3A48"/>
<path d="M352.167 204.656H345.481V185.34H339.435V179.863H358.202V185.34H352.172V204.656H352.167Z" fill="#0D3A48"/>
<path d="M379.907 204.656H365.206V179.863H379.907V185.241H371.898V189.142H379.315V194.519H371.898V199.203H379.907V204.656Z" fill="#0D3A48"/>
<path d="M403.896 197.126C403.896 198.666 403.507 200.031 402.728 201.221C401.95 202.416 400.823 203.344 399.354 204.003C397.884 204.667 396.165 204.994 394.19 204.994C392.541 204.994 391.158 204.877 390.043 204.644C388.922 204.411 387.76 204.008 386.552 203.431V197.459C387.83 198.112 389.154 198.625 390.537 198.993C391.913 199.36 393.179 199.541 394.33 199.541C395.323 199.541 396.049 199.366 396.513 199.022C396.978 198.678 397.21 198.235 397.21 197.692C397.21 197.354 397.118 197.056 396.932 196.8C396.746 196.543 396.444 196.287 396.031 196.03C395.619 195.768 394.521 195.237 392.738 194.438C391.123 193.703 389.915 192.991 389.108 192.303C388.3 191.615 387.702 190.822 387.313 189.93C386.924 189.037 386.726 187.982 386.726 186.757C386.726 184.471 387.557 182.692 389.218 181.415C390.879 180.137 393.156 179.496 396.06 179.496C398.622 179.496 401.236 180.091 403.902 181.275L401.857 186.448C399.54 185.386 397.542 184.856 395.863 184.856C394.992 184.856 394.359 185.007 393.964 185.311C393.569 185.614 393.371 185.993 393.371 186.448C393.371 186.938 393.621 187.369 394.126 187.754C394.626 188.139 395.991 188.839 398.215 189.86C400.353 190.822 401.828 191.854 402.659 192.956C403.483 194.065 403.896 195.453 403.896 197.126Z" fill="#0D3A48"/>
</g>
<defs>
<clipPath id="clip0_1_10">
<rect width="489" height="205" fill="white"/>
</clipPath>
</defs>
</svg>
