<svg width="24" height="25" viewBox="0 0 24 25" fill="none" xmlns="http://www.w3.org/2000/svg">
<path d="M8.5 14.8098L5 22.3098" stroke="#E4B383" stroke-width="1.5" stroke-linecap="round" stroke-linejoin="round"/>
<path d="M8 6.30981C8 6.30981 9 5.24851 9 4.30981C9 2.97648 8 2.30981 8 2.30981" stroke="#E4B383" stroke-width="1.5" stroke-linecap="round" stroke-linejoin="round"/>
<path d="M12 6.30981C12 6.30981 13 5.24851 13 4.30981C13 2.97648 12 2.30981 12 2.30981" stroke="#E4B383" stroke-width="1.5" stroke-linecap="round" stroke-linejoin="round"/>
<path d="M16 6.30981C16 6.30981 17 5.24851 17 4.30981C17 2.97648 16 2.30981 16 2.30981" stroke="#E4B383" stroke-width="1.5" stroke-linecap="round" stroke-linejoin="round"/>
<path d="M16.5 17.8098H7.5" stroke="#E4B383" stroke-width="1.5" stroke-linejoin="round"/>
<path d="M15.5 14.8098L17.6 19.3098" stroke="#E4B383" stroke-width="1.5" stroke-linecap="round" stroke-linejoin="round"/>
<path d="M18.5 22.3098C19.3284 22.3098 20 21.6382 20 20.8098C20 19.9814 19.3284 19.3098 18.5 19.3098C17.6716 19.3098 17 19.9814 17 20.8098C17 21.6382 17.6716 22.3098 18.5 22.3098Z" stroke="#E4B383" stroke-width="1.5" stroke-linecap="round" stroke-linejoin="round"/>
<path d="M12.0001 15.3098C15.6641 15.3098 18.6706 12.4948 18.9748 8.90955C19.0028 8.57937 18.7315 8.30981 18.4001 8.30981H5.6001C5.26873 8.30981 4.99742 8.57937 5.02543 8.90955C5.32965 12.4948 8.33613 15.3098 12.0001 15.3098Z" stroke="#E4B383" stroke-width="1.5"/>
</svg>
