<svg width="29" height="29" viewBox="0 0 29 29" fill="none" xmlns="http://www.w3.org/2000/svg">
<path d="M5.35693 2.93481V25.6848H22.8569V2.93481H5.35693ZM21.9819 3.80981V7.30981H6.23193V3.80981H21.9819ZM6.23193 24.8098V8.18481H21.9819V24.8098H6.23193Z" fill="#E4B383" stroke="#E4B383" stroke-width="0.4375"/>
<path d="M8.85693 6.43481C9.34018 6.43481 9.73193 6.04306 9.73193 5.55981C9.73193 5.07657 9.34018 4.68481 8.85693 4.68481C8.37368 4.68481 7.98193 5.07657 7.98193 5.55981C7.98193 6.04306 8.37368 6.43481 8.85693 6.43481Z" fill="#E4B383"/>
<path d="M12.3569 6.43481C12.8402 6.43481 13.2319 6.04306 13.2319 5.55981C13.2319 5.07657 12.8402 4.68481 12.3569 4.68481C11.8737 4.68481 11.4819 5.07657 11.4819 5.55981C11.4819 6.04306 11.8737 6.43481 12.3569 6.43481Z" fill="#E4B383"/>
<path d="M15.8569 6.43481C16.3402 6.43481 16.7319 6.04306 16.7319 5.55981C16.7319 5.07657 16.3402 4.68481 15.8569 4.68481C15.3737 4.68481 14.9819 5.07657 14.9819 5.55981C14.9819 6.04306 15.3737 6.43481 15.8569 6.43481Z" fill="#E4B383"/>
<path d="M19.3569 6.43481C19.8402 6.43481 20.2319 6.04306 20.2319 5.55981C20.2319 5.07657 19.8402 4.68481 19.3569 4.68481C18.8737 4.68481 18.4819 5.07657 18.4819 5.55981C18.4819 6.04306 18.8737 6.43481 19.3569 6.43481Z" fill="#E4B383"/>
<path d="M14.1069 9.93481C12.8955 9.93481 11.7113 10.294 10.7041 10.9671C9.69682 11.6401 8.91176 12.5967 8.44817 13.7159C7.98459 14.8351 7.86329 16.0666 8.09963 17.2547C8.33596 18.4429 8.91931 19.5342 9.77591 20.3908C10.6325 21.2474 11.7239 21.8308 12.912 22.0671C14.1001 22.3035 15.3317 22.1822 16.4509 21.7186C17.5701 21.255 18.5267 20.4699 19.1997 19.4627C19.8727 18.4554 20.2319 17.2712 20.2319 16.0598C20.2319 14.4354 19.5866 12.8774 18.438 11.7288C17.2893 10.5801 15.7314 9.93481 14.1069 9.93481ZM14.1069 21.3098C13.0686 21.3098 12.0536 21.0019 11.1902 20.425C10.3268 19.8482 9.65393 19.0282 9.25657 18.0689C8.85921 17.1096 8.75524 16.054 8.95781 15.0356C9.16039 14.0172 9.6604 13.0817 10.3946 12.3475C11.1289 11.6133 12.0643 11.1133 13.0827 10.9107C14.1011 10.7081 15.1567 10.8121 16.116 11.2094C17.0753 11.6068 17.8953 12.2797 18.4722 13.1431C19.049 14.0064 19.3569 15.0215 19.3569 16.0598C19.3569 17.4522 18.8038 18.7876 17.8192 19.7721C16.8347 20.7567 15.4993 21.3098 14.1069 21.3098Z" fill="#E4B383"/>
<path d="M14.1069 12.5598C13.4147 12.5598 12.738 12.7651 12.1624 13.1497C11.5869 13.5343 11.1383 14.0809 10.8734 14.7204C10.6085 15.36 10.5391 16.0637 10.6742 16.7426C10.8092 17.4216 11.1426 18.0452 11.6321 18.5347C12.1215 19.0242 12.7452 19.3575 13.4241 19.4926C14.1031 19.6276 14.8068 19.5583 15.4463 19.2934C16.0859 19.0285 16.6325 18.5799 17.0171 18.0043C17.4017 17.4287 17.6069 16.752 17.6069 16.0598C17.6069 15.1316 17.2382 14.2413 16.5818 13.5849C15.9254 12.9286 15.0352 12.5598 14.1069 12.5598ZM14.1069 18.6848C13.5878 18.6848 13.0802 18.5309 12.6486 18.2424C12.2169 17.954 11.8804 17.544 11.6818 17.0644C11.4831 16.5847 11.4311 16.0569 11.5324 15.5477C11.6337 15.0385 11.8837 14.5708 12.2508 14.2037C12.6179 13.8365 13.0856 13.5865 13.5948 13.4853C14.104 13.384 14.6318 13.436 15.1115 13.6346C15.5911 13.8333 16.0011 14.1698 16.2895 14.6014C16.578 15.0331 16.7319 15.5406 16.7319 16.0598C16.7319 16.756 16.4554 17.4237 15.9631 17.916C15.4708 18.4083 14.8031 18.6848 14.1069 18.6848Z" fill="#E4B383"/>
</svg>
