<svg width="24" height="25" viewBox="0 0 24 25" fill="none" xmlns="http://www.w3.org/2000/svg">
<path d="M22 4.01199V11.412H2V4.01199C2 3.68062 2.26863 3.41199 2.6 3.41199H21.4C21.7314 3.41199 22 3.68062 22 4.01199Z" stroke="#E4B383" stroke-width="1.5" stroke-linecap="round" stroke-linejoin="round"/>
<path d="M18 7.41199H19" stroke="#E4B383" stroke-width="1.5" stroke-linecap="round" stroke-linejoin="round"/>
<path d="M2 11.412L2.78969 13.9964C3.04668 14.8375 3.82294 15.412 4.70239 15.412H6" stroke="#E4B383" stroke-width="1.5" stroke-linecap="round" stroke-linejoin="round"/>
<path d="M22 11.412L21.2103 13.9964C20.9533 14.8375 20.1771 15.412 19.2976 15.412H18" stroke="#E4B383" stroke-width="1.5" stroke-linecap="round" stroke-linejoin="round"/>
<path d="M9.5 14.912C9.5 14.912 9.5 21.912 6 21.912" stroke="#E4B383" stroke-width="1.5" stroke-linecap="round" stroke-linejoin="round"/>
<path d="M14.5 14.912C14.5 14.912 14.5 21.912 18 21.912" stroke="#E4B383" stroke-width="1.5" stroke-linecap="round" stroke-linejoin="round"/>
<path d="M12 14.912V21.912" stroke="#E4B383" stroke-width="1.5" stroke-linecap="round" stroke-linejoin="round"/>
</svg>
