<svg width="26" height="26" viewBox="0 0 26 26" fill="none" xmlns="http://www.w3.org/2000/svg">
<path d="M21.3345 4.26009C21.0501 3.24077 20.3231 2.78247 18.964 2.78247H4.74097V3.17756C4.87262 4.21586 5.273 5.20183 5.90251 6.03797L5.8156 6.55158C5.18236 9.86941 4.82294 13.2337 4.74097 16.6104V18.5858C4.74097 19.005 4.90747 19.4069 5.20384 19.7033C5.50021 19.9997 5.90217 20.1662 6.3213 20.1662H18.1738C18.593 20.1662 18.9949 19.9997 19.2913 19.7033C19.5877 19.4069 19.7542 19.005 19.7542 18.5858V16.6104C19.7542 16.2232 19.7542 15.7649 19.7542 15.2671L20.7893 14.5718C21.155 14.3418 21.4646 14.033 21.6957 13.668C21.9267 13.303 22.0733 12.891 22.1247 12.462C22.1565 9.70762 21.8915 6.95778 21.3345 4.26009ZM6.59786 6.678L6.74009 5.84042L6.63737 5.70609C6.15763 5.06525 5.79881 4.34226 5.57855 3.57264H16.9649C17.6918 4.00723 18.9087 10.2891 18.964 16.2153H13.4328V6.33823C13.4328 6.02388 13.3079 5.72241 13.0857 5.50013C12.8634 5.27785 12.5619 5.15298 12.2476 5.15298C11.9332 5.15298 11.6317 5.27785 11.4095 5.50013C11.1872 5.72241 11.0623 6.02388 11.0623 6.33823V16.2153H5.53114C5.64346 13.0137 6.00007 9.82533 6.59786 6.678ZM12.6427 6.33823V16.6104C12.6427 16.7152 12.601 16.8157 12.5269 16.8898C12.4528 16.9639 12.3524 17.0055 12.2476 17.0055C12.1428 17.0055 12.0423 16.9639 11.9682 16.8898C11.8941 16.8157 11.8525 16.7152 11.8525 16.6104V6.33823C11.8525 6.23345 11.8941 6.13296 11.9682 6.05886C12.0423 5.98477 12.1428 5.94315 12.2476 5.94315C12.3524 5.94315 12.4528 5.98477 12.5269 6.05886C12.601 6.13296 12.6427 6.23345 12.6427 6.33823ZM18.1738 19.376H6.3213C6.11174 19.376 5.91076 19.2928 5.76257 19.1446C5.61439 18.9964 5.53114 18.7954 5.53114 18.5858V17.0055H11.1334C11.2128 17.2379 11.3629 17.4397 11.5627 17.5826C11.7625 17.7255 12.002 17.8023 12.2476 17.8023C12.4932 17.8023 12.7326 17.7255 12.9324 17.5826C13.1322 17.4397 13.2823 17.2379 13.3617 17.0055H18.964V18.5858C18.964 18.7954 18.8808 18.9964 18.7326 19.1446C18.5844 19.2928 18.3834 19.376 18.1738 19.376ZM20.331 13.908L19.691 14.3347C19.5013 10.7316 18.9008 5.52436 17.8736 3.57264H18.964C20.2204 3.57264 20.4337 3.99143 20.5443 4.46553C21.094 7.09494 21.3589 9.7759 21.3345 12.462C21.2769 12.7596 21.1579 13.0418 20.9851 13.2908C20.8123 13.5397 20.5896 13.75 20.331 13.908Z" fill="#E4B383" stroke="#E4B383" stroke-width="0.395084"/>
<path d="M18.1738 20.9564H6.3213C5.90217 20.9564 5.50021 21.1229 5.20384 21.4193C4.90747 21.7157 4.74097 22.1176 4.74097 22.5368V23.3269H19.7542V22.5368C19.7542 22.1176 19.5877 21.7157 19.2913 21.4193C18.9949 21.1229 18.593 20.9564 18.1738 20.9564ZM5.53114 22.5368C5.53114 22.3272 5.61439 22.1262 5.76257 21.978C5.91076 21.8298 6.11174 21.7466 6.3213 21.7466H18.1738C18.3834 21.7466 18.5844 21.8298 18.7326 21.978C18.8808 22.1262 18.964 22.3272 18.964 22.5368H5.53114Z" fill="#E4B383" stroke="#E4B383" stroke-width="0.395084"/>
</svg>
