<svg width="25" height="26" viewBox="0 0 25 26" fill="none" xmlns="http://www.w3.org/2000/svg">
<g clip-path="url(#clip0_33_175)">
<path d="M12.1783 3.68537L10.3434 1.08398L4.92383 18.0317L7.10714 18.806C7.3038 18.845 7.49047 18.9237 7.65578 19.0371C7.8211 19.1506 7.96162 19.2965 8.0688 19.4659C8.17598 19.6354 8.24757 19.8249 8.27924 20.0229C8.3109 20.2208 8.30197 20.4232 8.25299 20.6176L7.20004 24.3107H17.2649L17.3811 24.1171C18.6131 21.787 19.2888 19.2033 19.3554 16.5685C19.3554 10.545 17.2108 6.68936 12.1783 3.68537ZM5.89935 17.544L10.6144 2.83373L11.4892 4.06474L6.96778 17.9311L5.89935 17.544ZM16.8082 23.5365H8.22976L9.00398 20.8112C9.1516 20.3004 9.10422 19.753 8.87103 19.2752C8.63784 18.7974 8.23548 18.4232 7.742 18.2253L12.1318 4.56799C16.6378 7.38616 18.5811 10.994 18.5811 16.5685C18.5126 18.9936 17.9071 21.3735 16.8082 23.5365Z" fill="#E4B383" stroke="#E4B383" stroke-width="0.387112"/>
<path d="M13.3502 15.9689L12.1533 19.9181L12.8943 20.1426L14.0911 16.1934L13.3502 15.9689Z" fill="#E4B383" stroke="#E4B383" stroke-width="0.5"/>
<path d="M13.6651 10.305L13.2161 9.9566L9.36816 22.7623H15.7478L15.8484 22.5222C16.5377 20.8765 16.9384 19.1244 17.033 17.3427C17.033 14.0677 16.1813 12.287 13.6651 10.305ZM15.2135 21.988H10.4056L13.6264 11.2805C15.6084 12.9606 16.2588 14.509 16.2588 17.3427C16.1746 18.9382 15.8239 20.5083 15.2213 21.988H15.2135Z" fill="#E4B383" stroke="#E4B383" stroke-width="0.5"/>
</g>
<defs>
<clipPath id="clip0_33_175">
<rect width="24.7751" height="24.7751" fill="white" transform="translate(0 0.309814)"/>
</clipPath>
</defs>
</svg>
