<svg width="29" height="29" viewBox="0 0 29 29" fill="none" xmlns="http://www.w3.org/2000/svg">
<path d="M21.0165 3.8156C20.9261 3.55987 20.7588 3.33837 20.5376 3.18146C20.3164 3.02455 20.052 2.93991 19.7808 2.93915H16.275C16.0037 2.93991 15.7394 3.02455 15.5181 3.18146C15.2969 3.33837 15.1296 3.55987 15.0392 3.8156H11.3756C11.2852 3.55987 11.1179 3.33837 10.8967 3.18146C10.6754 3.02455 10.411 2.93991 10.1398 2.93915H8.38691C8.11567 2.93991 7.85131 3.02455 7.63007 3.18146C7.40882 3.33837 7.24153 3.55987 7.15112 3.8156H5.31934V25.7268H22.8483V3.8156H21.0165ZM21.9719 4.69205V8.19785H6.19579V4.69205H21.9719ZM6.19579 24.8504V9.0743H21.9719V24.8504H6.19579Z" fill="#E4B383" stroke="#E4B383" stroke-width="0.438225"/>
<path d="M7.94872 7.32141C8.43277 7.32141 8.82516 6.92901 8.82516 6.44496C8.82516 5.96091 8.43277 5.56851 7.94872 5.56851C7.46467 5.56851 7.07227 5.96091 7.07227 6.44496C7.07227 6.92901 7.46467 7.32141 7.94872 7.32141Z" fill="#E4B383"/>
<path d="M14.9604 7.32138C15.4445 7.32138 15.8369 6.92898 15.8369 6.44493C15.8369 5.96088 15.4445 5.56848 14.9604 5.56848C14.4764 5.56848 14.084 5.96088 14.084 6.44493C14.084 6.92898 14.4764 7.32138 14.9604 7.32138Z" fill="#E4B383"/>
<path d="M12.3306 7.32138C12.8146 7.32138 13.207 6.92898 13.207 6.44493C13.207 5.96088 12.8146 5.56848 12.3306 5.56848C11.8465 5.56848 11.4541 5.96088 11.4541 6.44493C11.4541 6.92898 11.8465 7.32138 12.3306 7.32138Z" fill="#E4B383"/>
<path d="M17.5893 7.32141C18.0734 7.32141 18.4658 6.92901 18.4658 6.44496C18.4658 5.96091 18.0734 5.56851 17.5893 5.56851C17.1053 5.56851 16.7129 5.96091 16.7129 6.44496C16.7129 6.92901 17.1053 7.32141 17.5893 7.32141Z" fill="#E4B383"/>
<path d="M20.2192 7.32138C20.7033 7.32138 21.0957 6.92898 21.0957 6.44493C21.0957 5.96088 20.7033 5.56848 20.2192 5.56848C19.7352 5.56848 19.3428 5.96088 19.3428 6.44493C19.3428 6.92898 19.7352 7.32138 20.2192 7.32138Z" fill="#E4B383"/>
<path d="M17.5897 9.95074H10.5781V10.8272H17.5897V9.95074Z" fill="#E4B383"/>
<path d="M18.0274 11.7036H10.1394C9.55824 11.7036 9.00092 11.9345 8.59001 12.3454C8.17909 12.7563 7.94824 13.3136 7.94824 13.8947V19.1534C7.94824 19.4412 8.00492 19.7261 8.11503 19.9919C8.22515 20.2578 8.38654 20.4993 8.59001 20.7028C8.79347 20.9063 9.03502 21.0677 9.30086 21.1778C9.5667 21.2879 9.85162 21.3446 10.1394 21.3446H18.0274C18.3152 21.3446 18.6001 21.2879 18.8659 21.1778C19.1318 21.0677 19.3733 20.9063 19.5768 20.7028C19.7802 20.4993 19.9416 20.2578 20.0517 19.9919C20.1619 19.7261 20.2185 19.4412 20.2185 19.1534V13.8947C20.2185 13.3136 19.9877 12.7563 19.5768 12.3454C19.1659 11.9345 18.6085 11.7036 18.0274 11.7036ZM19.3421 19.1534C19.3421 19.5021 19.2036 19.8365 18.957 20.083C18.7105 20.3296 18.3761 20.4681 18.0274 20.4681H10.1394C9.79069 20.4681 9.4563 20.3296 9.20975 20.083C8.9632 19.8365 8.82469 19.5021 8.82469 19.1534V13.8947C8.82469 13.5461 8.9632 13.2117 9.20975 12.9651C9.4563 12.7186 9.79069 12.5801 10.1394 12.5801H18.0274C18.3761 12.5801 18.7105 12.7186 18.957 12.9651C19.2036 13.2117 19.3421 13.5461 19.3421 13.8947V19.1534Z" fill="#E4B383"/>
</svg>
