<svg width="24" height="24" viewBox="0 0 24 24" fill="none" xmlns="http://www.w3.org/2000/svg">
<path d="M21.4095 10.0792H19.9774V7.38309C19.9774 6.33401 19.4331 5.3852 18.5452 4.85529V3.63435C18.939 3.63435 19.2613 3.31211 19.2613 2.91826V2.20217C19.2613 1.80832 18.939 1.48608 18.5452 1.48608H15.6808C15.287 1.48608 14.9647 1.80832 14.9647 2.20217V2.91826C14.9647 3.31211 15.287 3.63435 15.6808 3.63435V4.85529C14.7929 5.3852 14.2486 6.33401 14.2486 7.38309V10.0792H13.1745V3.63435C13.1745 2.84308 12.5336 2.20217 11.7423 2.20217C10.951 2.20217 10.3101 2.84308 10.3101 3.63435V10.0792H9.59406V5.78263C9.59406 5.63941 9.50813 5.51051 9.37923 5.45322C9.24675 5.39594 9.09638 5.42458 8.99254 5.52125L8.07953 6.36982C7.77877 3.45891 6.67599 1.48608 5.29752 1.48608C3.66483 1.48608 2.43316 4.25735 2.43316 7.9309C2.43316 8.67563 2.49044 9.3953 2.59428 10.0792H2.07511C1.48434 10.0792 1.00098 10.5625 1.00098 11.1533V11.8694C1.00098 12.4602 1.48434 12.9435 2.07511 12.9435H2.83059L3.57532 19.4027C3.76508 21.0282 5.13998 22.2527 6.77624 22.2527H16.7084C18.3447 22.2527 19.7196 21.0282 19.9093 19.3991L20.6541 12.9435H21.4095C22.0003 12.9435 22.4837 12.4602 22.4837 11.8694V11.1533C22.4837 10.5625 22.0003 10.0792 21.4095 10.0792ZM15.6808 2.20217H18.5452V2.91826H15.6808V2.20217ZM14.9647 8.28894H19.2613V10.0792H14.9647V8.28894ZM11.0262 3.63435C11.0262 3.24051 11.3485 2.91826 11.7423 2.91826C12.1362 2.91826 12.4584 3.24051 12.4584 3.63435V10.0792H11.0262V3.63435ZM17.7503 10.7953L13.1745 15.9833L8.59869 10.7953H17.7503ZM8.87797 6.60255V10.0792H5.1364L8.87797 6.60255ZM4.93947 3.63435H5.65556C5.85249 3.63435 6.01361 3.79548 6.01361 3.9924C6.01361 4.18932 5.85249 4.35045 5.65556 4.35045H4.93947C4.74255 4.35045 4.58143 4.18932 4.58143 3.9924C4.58143 3.79548 4.74255 3.63435 4.93947 3.63435ZM4.58143 5.06654H6.01361C6.21053 5.06654 6.37165 5.22766 6.37165 5.42458C6.37165 5.62151 6.21053 5.78263 6.01361 5.78263H4.58143C4.3845 5.78263 4.22338 5.62151 4.22338 5.42458C4.22338 5.22766 4.3845 5.06654 4.58143 5.06654ZM4.22338 6.49872H6.37165C6.56858 6.49872 6.7297 6.65984 6.7297 6.85676C6.7297 7.05369 6.56858 7.21481 6.37165 7.21481H4.22338C4.02646 7.21481 3.86534 7.05369 3.86534 6.85676C3.86534 6.65984 4.02646 6.49872 4.22338 6.49872ZM19.2004 19.3167C19.0536 20.5842 17.9795 21.5366 16.7084 21.5366H6.77624C5.50518 21.5366 4.43105 20.5842 4.28425 19.3203L3.55026 12.9435H9.53677L12.906 16.7603C12.974 16.8391 13.0707 16.882 13.1745 16.882C13.2783 16.882 13.375 16.8391 13.443 16.7603L16.8122 12.9435H19.9344L19.2004 19.3167Z" fill="#E4B383"/>
<path d="M7.08781 16.166H6.01367V17.2402H7.08781V16.166Z" fill="#E4B383"/>
<path d="M9.59464 16.166H8.52051V17.2402H9.59464V16.166Z" fill="#E4B383"/>
<path d="M7.08781 18.6722H6.01367V19.7464H7.08781V18.6722Z" fill="#E4B383"/>
<path d="M9.59464 18.6722H8.52051V19.7464H9.59464V18.6722Z" fill="#E4B383"/>
</svg>
