<svg width="24" height="25" viewBox="0 0 24 25" fill="none" xmlns="http://www.w3.org/2000/svg">
<path d="M12 21.412C10.3 21.412 9 20.112 9 18.412C9 16.712 10.3 15.412 12 15.412C13.7 15.412 15 16.712 15 18.412C15 20.112 13.7 21.412 12 21.412ZM12 17.412C11.4 17.412 11 17.812 11 18.412C11 19.012 11.4 19.412 12 19.412C12.6 19.412 13 19.012 13 18.412C13 17.812 12.6 17.412 12 17.412Z" fill="#E4B383"/>
<path d="M16.5995 15.612C16.2995 15.612 15.9995 15.512 15.7995 15.212C14.7995 14.012 13.3995 13.412 11.8995 13.412C10.3995 13.412 8.99951 14.112 7.99951 15.212C7.59951 15.612 6.99951 15.712 6.59951 15.312C6.19951 14.912 6.09951 14.312 6.49951 13.912C7.89951 12.312 9.89951 11.412 11.9995 11.412C14.0995 11.412 16.0995 12.312 17.3995 14.012C17.6995 14.412 17.6995 15.112 17.2995 15.412C17.0995 15.512 16.8995 15.612 16.5995 15.612Z" fill="#E4B383"/>
<path d="M19.6995 13.112C19.3995 13.112 19.0995 13.012 18.8995 12.712C17.2995 10.612 14.6995 9.41199 11.9995 9.41199C9.29951 9.41199 6.69951 10.612 4.99951 12.712C4.69951 13.112 3.99951 13.212 3.59951 12.812C3.19951 12.412 3.09951 11.812 3.49951 11.412C5.59951 8.91199 8.69951 7.41199 11.9995 7.41199C15.2995 7.41199 18.3995 8.91199 20.4995 11.412C20.7995 11.812 20.7995 12.512 20.3995 12.812C20.1995 13.012 19.9995 13.112 19.6995 13.112Z" fill="#E4B383"/>
<path d="M22.7999 10.512C22.4999 10.512 22.1999 10.412 21.9999 10.112C19.5999 7.11199 15.8999 5.41199 11.9999 5.41199C8.0999 5.41199 4.3999 7.11199 1.8999 10.212C1.5999 10.612 0.899903 10.712 0.499903 10.312C0.0999034 10.012 -9.65595e-05 9.31199 0.399903 8.91199C3.1999 5.41199 7.4999 3.41199 11.9999 3.41199C16.4999 3.41199 20.7999 5.41199 23.5999 8.91199C23.8999 9.31199 23.8999 10.012 23.4999 10.312C23.2999 10.512 23.0999 10.512 22.7999 10.512Z" fill="#E4B383"/>
</svg>
